<svg xmlns="http://www.w3.org/2000/svg" xmlns:xlink="http://www.w3.org/1999/xlink" version="1.1" x="0px" y="0px" width="100px" height="100px" viewBox="0 0 100 100" enable-background="new 0 0 100 100" xml:space="preserve">
<g id="Captions">
</g>
<g id="Your_Icon">
	<g>
		<path d="M29.849,16.089c-0.693-1.03-2.095-1.299-3.125-0.605c-1.101,0.747-2.178,1.553-3.203,2.397s-2.019,1.748-2.954,2.686    c-0.938,0.936-1.841,1.929-2.686,2.954s-1.65,2.103-2.397,3.203c-0.693,1.03-0.425,2.429,0.605,3.125    c0.386,0.261,0.825,0.386,1.257,0.386c0.723,0,1.434-0.347,1.868-0.991c0.664-0.981,1.382-1.943,2.136-2.856    c0.758-0.918,1.565-1.805,2.398-2.639c0.834-0.833,1.721-1.641,2.639-2.396c0.913-0.757,1.875-1.475,2.856-2.139    C30.273,18.516,30.545,17.119,29.849,16.089z"/>
		<path d="M78.647,26.387c0.757,0.913,1.475,1.875,2.139,2.856c0.435,0.645,1.146,0.991,1.868,0.991    c0.432,0,0.871-0.125,1.257-0.386c1.03-0.696,1.299-2.095,0.605-3.125c-0.747-1.101-1.553-2.178-2.397-3.203    s-1.748-2.019-2.686-2.954c-0.936-0.938-1.929-1.841-2.954-2.686s-2.103-1.65-3.203-2.397c-1.032-0.696-2.429-0.425-3.125,0.605    s-0.425,2.427,0.605,3.125c0.981,0.664,1.943,1.382,2.856,2.136c0.918,0.758,1.805,1.565,2.639,2.398    C77.085,24.582,77.893,25.469,78.647,26.387z"/>
		<path d="M28.296,34.36c0.649,0,1.292-0.278,1.735-0.817c0.53-0.641,1.087-1.253,1.673-1.839s1.198-1.143,1.839-1.673    c0.959-0.791,1.091-2.209,0.3-3.166c-0.786-0.957-2.207-1.094-3.167-0.303c-0.749,0.62-1.467,1.271-2.155,1.958    c-0.687,0.688-1.338,1.406-1.958,2.155c-0.791,0.96-0.656,2.376,0.303,3.167C27.285,34.189,27.793,34.36,28.296,34.36z"/>
		<path d="M71.479,28.521c-0.688-0.687-1.406-1.338-2.155-1.958c-0.96-0.791-2.381-0.654-3.167,0.303    c-0.791,0.957-0.659,2.375,0.3,3.166c0.641,0.53,1.253,1.087,1.839,1.673s1.143,1.198,1.673,1.839    c0.443,0.539,1.086,0.817,1.735,0.817c0.503,0,1.011-0.171,1.431-0.518c0.959-0.791,1.094-2.207,0.303-3.167    C72.817,29.927,72.166,29.209,71.479,28.521z"/>
		<path d="M83.75,36.499c-0.913,0-1.826,0.093-2.715,0.273L60.08,41.05c-0.354-0.397-0.732-0.776-1.13-1.13l4.277-20.957    c0.181-0.887,0.273-1.8,0.273-2.713c0-7.443-6.058-13.501-13.501-13.501S36.499,8.807,36.499,16.25    c0,0.913,0.093,1.826,0.273,2.715L41.05,39.92c-0.397,0.354-0.776,0.732-1.13,1.13l-20.957-4.277    c-0.887-0.181-1.8-0.273-2.713-0.273C8.807,36.499,2.749,42.557,2.749,50S8.807,63.501,16.25,63.501    c0.913,0,1.826-0.093,2.715-0.273L39.92,58.95c0.354,0.397,0.732,0.776,1.13,1.13l-4.277,20.957    c-0.181,0.887-0.273,1.8-0.273,2.713c0,7.443,6.058,13.501,13.501,13.501s13.501-6.058,13.501-13.501    c0-0.913-0.093-1.826-0.273-2.715L58.95,60.08c0.397-0.354,0.776-0.732,1.13-1.13l20.957,4.277c0.887,0.181,1.8,0.273,2.713,0.273    c7.443,0,13.501-6.058,13.501-13.501S91.193,36.499,83.75,36.499z M83.75,58.999c-0.61,0-1.221-0.059-1.812-0.181l-19.36-3.953    c0.586-1.511,0.923-3.148,0.923-4.865s-0.337-3.354-0.923-4.865l19.357-3.953c0.594-0.122,1.204-0.181,1.814-0.181    c4.961,0,8.999,4.038,8.999,8.999S88.711,58.999,83.75,58.999z M58.999,83.75c0,4.961-4.038,8.999-8.999,8.999    s-8.999-4.038-8.999-8.999c0-0.61,0.059-1.221,0.181-1.812l3.953-19.36c1.511,0.586,3.148,0.923,4.865,0.923    s3.354-0.337,4.865-0.923l3.953,19.357C58.94,82.529,58.999,83.14,58.999,83.75z M16.25,58.999c-4.961,0-8.999-4.038-8.999-8.999    s4.038-8.999,8.999-8.999c0.61,0,1.221,0.059,1.812,0.181l19.36,3.953c-0.586,1.511-0.923,3.148-0.923,4.865    s0.337,3.354,0.923,4.865l-19.357,3.953C17.471,58.94,16.86,58.999,16.25,58.999z M41.001,16.25c0-4.961,4.038-8.999,8.999-8.999    s8.999,4.038,8.999,8.999c0,0.61-0.059,1.221-0.181,1.812l-3.953,19.36c-1.511-0.586-3.148-0.923-4.865-0.923    s-3.354,0.337-4.865,0.923l-3.953-19.357C41.06,17.471,41.001,16.86,41.001,16.25z M58.999,50c0,1.421-0.358,2.746-0.947,3.94    c-0.081,0.163-0.171,0.319-0.259,0.479c-0.317,0.552-0.679,1.069-1.102,1.543c-0.231,0.257-0.473,0.498-0.729,0.729    c-0.474,0.423-0.991,0.784-1.543,1.102c-0.159,0.088-0.315,0.178-0.479,0.259c-1.194,0.589-2.52,0.947-3.94,0.947    s-2.746-0.358-3.94-0.947c-0.163-0.081-0.319-0.171-0.479-0.259c-0.552-0.317-1.069-0.679-1.543-1.102    c-0.257-0.231-0.498-0.473-0.729-0.729c-0.423-0.474-0.784-0.991-1.102-1.543c-0.088-0.159-0.178-0.315-0.259-0.479    c-0.589-1.194-0.947-2.52-0.947-3.94s0.358-2.746,0.947-3.94c0.081-0.163,0.171-0.319,0.259-0.479    c0.317-0.552,0.679-1.069,1.102-1.543c0.231-0.257,0.473-0.498,0.729-0.729c0.474-0.423,0.991-0.784,1.543-1.102    c0.159-0.088,0.315-0.178,0.479-0.259c1.194-0.589,2.52-0.947,3.94-0.947s2.746,0.358,3.94,0.947    c0.163,0.081,0.319,0.171,0.479,0.259c0.552,0.317,1.069,0.679,1.543,1.102c0.257,0.231,0.498,0.473,0.729,0.729    c0.423,0.474,0.784,0.991,1.102,1.543c0.088,0.159,0.178,0.315,0.259,0.479C58.641,47.254,58.999,48.579,58.999,50z"/>
		<path d="M54.992,46.685c-0.295-0.444-0.661-0.83-1.057-1.177c-0.2-0.176-0.398-0.352-0.62-0.5    c-0.034-0.025-0.078-0.039-0.114-0.064c-0.799-0.508-1.727-0.814-2.723-0.896c-0.161-0.013-0.314-0.049-0.479-0.049    s-0.317,0.036-0.479,0.049c-0.996,0.081-1.924,0.388-2.723,0.896c-0.036,0.025-0.08,0.039-0.114,0.064    c-0.222,0.148-0.42,0.324-0.62,0.5c-0.396,0.347-0.762,0.732-1.057,1.177c-0.215,0.322-0.398,0.664-0.55,1.025    c-0.293,0.708-0.459,1.479-0.459,2.29s0.166,1.582,0.459,2.287c0.151,0.364,0.335,0.706,0.55,1.028    c0.295,0.444,0.661,0.83,1.057,1.177c0.2,0.176,0.398,0.352,0.62,0.5c0.034,0.025,0.078,0.039,0.114,0.064    c0.799,0.508,1.727,0.814,2.723,0.896c0.161,0.013,0.314,0.049,0.479,0.049s0.317-0.036,0.479-0.049    c0.996-0.081,1.924-0.388,2.723-0.896c0.036-0.025,0.08-0.039,0.114-0.064c0.222-0.148,0.42-0.324,0.62-0.5    c0.396-0.347,0.762-0.732,1.057-1.177c0.215-0.322,0.398-0.664,0.55-1.028c0.293-0.705,0.459-1.477,0.459-2.287    c0-0.796-0.166-1.553-0.446-2.251C55.4,47.375,55.215,47.017,54.992,46.685z M50.213,51.457c-0.071,0.013-0.137,0.042-0.213,0.042    s-0.142-0.029-0.213-0.042c-0.723-0.107-1.286-0.705-1.286-1.457s0.563-1.35,1.286-1.457c0.071-0.013,0.137-0.042,0.213-0.042    s0.142,0.029,0.213,0.042c0.723,0.107,1.286,0.705,1.286,1.457S50.936,51.35,50.213,51.457z"/>
		<path d="M26.387,78.65c-0.918-0.758-1.805-1.565-2.639-2.398c-0.833-0.834-1.641-1.721-2.396-2.639    c-0.757-0.913-1.475-1.875-2.139-2.856c-0.693-1.03-2.095-1.304-3.125-0.605c-1.03,0.696-1.299,2.095-0.605,3.125    c0.747,1.101,1.553,2.178,2.397,3.203s1.748,2.019,2.686,2.954c0.936,0.938,1.929,1.841,2.954,2.686s2.103,1.65,3.203,2.397    c0.386,0.259,0.825,0.386,1.26,0.386c0.723,0,1.431-0.347,1.865-0.991c0.696-1.03,0.425-2.427-0.605-3.125    C28.262,80.122,27.3,79.404,26.387,78.65z"/>
		<path d="M80.786,70.757c-0.664,0.981-1.382,1.943-2.136,2.856c-0.758,0.918-1.565,1.805-2.398,2.639    c-0.834,0.833-1.721,1.641-2.639,2.396c-0.913,0.757-1.875,1.475-2.856,2.139c-1.03,0.698-1.302,2.095-0.605,3.125    c0.435,0.645,1.143,0.991,1.865,0.991c0.435,0,0.874-0.127,1.26-0.386c1.101-0.747,2.178-1.553,3.203-2.397    s2.019-1.748,2.954-2.686c0.938-0.936,1.841-1.929,2.686-2.954s1.65-2.103,2.397-3.203c0.693-1.03,0.425-2.429-0.605-3.125    C82.881,69.453,81.479,69.727,80.786,70.757z"/>
		<path d="M31.704,68.296c-0.586-0.586-1.143-1.198-1.673-1.839c-0.791-0.959-2.209-1.096-3.166-0.3    c-0.959,0.791-1.094,2.207-0.303,3.167c0.62,0.749,1.271,1.467,1.958,2.155c0.688,0.687,1.406,1.338,2.155,1.958    c0.42,0.347,0.928,0.516,1.434,0.516c0.646,0,1.289-0.279,1.733-0.818c0.791-0.957,0.659-2.375-0.3-3.166    C32.902,69.438,32.29,68.882,31.704,68.296z"/>
		<path d="M73.438,69.324c0.791-0.96,0.656-2.376-0.303-3.167c-0.957-0.796-2.375-0.659-3.166,0.3    c-0.53,0.641-1.087,1.253-1.673,1.839s-1.198,1.143-1.839,1.673c-0.959,0.791-1.091,2.209-0.3,3.166    c0.444,0.539,1.087,0.818,1.733,0.818c0.506,0,1.014-0.169,1.434-0.516c0.749-0.62,1.467-1.271,2.155-1.958    C72.166,70.791,72.817,70.073,73.438,69.324z"/>
	</g>
</g>
</svg>