<svg xmlns="http://www.w3.org/2000/svg" xmlns:xlink="http://www.w3.org/1999/xlink" version="1.1" id="Calque_1" x="0px" y="0px" width="100px" height="100px" viewBox="0 0 100 100" enable-background="new 0 0 100 100" xml:space="preserve">
<g>
	<defs>
		<rect id="SVGID_1_" width="100" height="100"/>
	</defs>
	<clipPath id="SVGID_2_">
		<use xlink:href="#SVGID_1_" overflow="visible"/>
	</clipPath>
	<g clip-path="url(#SVGID_2_)">
		<path fill="#000000" d="M60.429,33.484C57.98,30.567,54.471,29.088,50,29.088s-7.98,1.479-10.429,4.396    c-3.674,4.377-3.844,10.847-3.612,14.354H31.85v4.2h2.962l-5.062,8.63v32.97h4.2v-31.83l5.731-9.77h4.216v41.6h4.2v-41.6h1.153H50    h0.75h1.153v41.6h4.2v-41.6h3.806v41.6h4.2v-41.6h4.042v-4.2h-4.109C64.272,44.331,64.102,37.86,60.429,33.484z M59.827,47.838    H50.75H50h-0.75h-9.077c-0.213-2.793-0.206-8.302,2.622-11.663c1.636-1.943,3.993-2.888,7.205-2.888s5.569,0.945,7.205,2.888    C60.034,39.536,60.04,45.047,59.827,47.838z"/>
		<rect x="15.8" y="38.462" fill="#000000" width="7.8" height="4.2"/>
		
			<rect x="19.86" y="23.312" transform="matrix(-0.866 -0.5 0.5 -0.866 31.6287 59.3001)" fill="#000000" width="7.8" height="4.2"/>
		<rect x="30.95" y="12.222" transform="matrix(0.5 0.866 -0.866 0.5 29.8281 -23.02)" fill="#000000" width="7.8" height="4.2"/>
		<rect x="47.9" y="6.362" fill="#000000" width="4.2" height="7.8"/>
		
			<rect x="63.05" y="10.422" transform="matrix(-0.866 -0.5 0.5 -0.866 114.4116 59.299)" fill="#000000" width="4.2" height="7.8"/>
		<rect x="72.341" y="23.312" transform="matrix(0.866 -0.5 0.5 0.866 -2.4916 41.5265)" fill="#000000" width="7.8" height="4.2"/>
		<rect x="76.4" y="38.462" fill="#000000" width="7.8" height="4.2"/>
	</g>
</g>
</svg>