<svg xmlns="http://www.w3.org/2000/svg" xmlns:xlink="http://www.w3.org/1999/xlink" version="1.1" id="Layer_1" x="0px" y="0px" width="100px" height="100px" viewBox="0 0 100 100" enable-background="new 0 0 100 100" xml:space="preserve">
<path fill="#000000" d="M58.552,22.347c0-2.39-1.943-4.333-4.333-4.333h-9.433c-2.392,0-4.338,1.943-4.338,4.333v1.577h-3.379  c-0.641-2.654-3.027-4.635-5.873-4.635c-3.335,0-6.048,2.715-6.048,6.052c0,3.334,2.713,6.046,6.048,6.046  c2.846,0,5.231-1.978,5.872-4.629h3.38V48.16c-6.779,0.711-12.08,6.458-12.08,13.421s5.301,12.71,12.08,13.421v1.649  c0,2.391,1.944,4.335,4.334,4.335h9.432c2.393,0,4.338-1.944,4.338-4.335v-1.573h3.378c0.641,2.651,3.028,4.629,5.874,4.629  c3.335,0,6.048-2.712,6.048-6.046c0-3.337-2.713-6.052-6.048-6.052c-2.847,0-5.234,1.98-5.874,4.635h-3.378v-21.4  c6.779-0.711,12.08-6.458,12.08-13.423c0-6.963-5.301-12.71-12.08-13.421V22.347z M31.196,28.553c-1.771,0-3.213-1.441-3.213-3.212  c0-1.774,1.441-3.218,3.213-3.218s3.213,1.443,3.213,3.218C34.409,27.111,32.968,28.553,31.196,28.553z M40.448,72.139  c-5.21-0.697-9.246-5.159-9.246-10.558s4.036-9.86,9.246-10.558V72.139z M55.717,76.651c0,0.827-0.674,1.501-1.503,1.501h-9.432  c-0.826,0-1.498-0.674-1.498-1.501v-1.573h12.433V76.651z M55.717,72.244H43.284V26.758h12.433V72.244z M55.717,23.924H43.284  v-1.577c0-0.826,0.674-1.499,1.502-1.499h9.433c0.826,0,1.498,0.673,1.498,1.499V23.924z M67.804,70.443  c1.771,0,3.213,1.443,3.213,3.218c0,1.771-1.441,3.212-3.213,3.212s-3.213-1.441-3.213-3.212  C64.591,71.887,66.032,70.443,67.804,70.443z M67.797,37.421c0,5.398-4.035,9.862-9.245,10.56V26.863  C63.762,27.561,67.797,32.022,67.797,37.421z"/>
</svg>