<svg xmlns="http://www.w3.org/2000/svg" xmlns:xlink="http://www.w3.org/1999/xlink" xmlns:a="http://ns.adobe.com/AdobeSVGViewerExtensions/3.0/" version="1.1" x="0px" y="0px" width="100px" height="100px" viewBox="-4.7 -5.016 100 100" enable-background="new -4.7 -5.016 100 100" xml:space="preserve">
<defs>
</defs>
<rect x="45.05" width="0.5" height="89.969"/>
<path d="M86.097,14.492c0.153,0,0.339,0.061,0.438,0.146c0.048,0.04,0.087,0.089,0.116,0.144c0.213,0.396,0.272,0.829,0.325,1.212  c0.019,0.133,0.036,0.265,0.061,0.394c0.222,1.75,0.343,3.5,0.46,5.193l0.012,0.174c0.126,2.055,0.246,4.107,0.345,6.158  c0.113,2.314,0.22,4.629,0.319,6.942l0.086,2.087c0.055,1.32,0.109,2.641,0.16,3.96c0.044,0.984,0.081,1.973,0.118,2.96  c0.044,1.153,0.088,2.306,0.141,3.458c0.045,1.283,0.095,2.561,0.145,3.838l0.355,8.813c0.054,1.387,0.116,2.771,0.179,4.156  l0.165,3.603c0.09,1.805,0.18,3.606,0.296,5.407c0.108,1.988,0.246,3.786,0.422,5.499c0.026,0.149,0.048,0.335,0.07,0.521  c0.05,0.417,0.097,0.812,0.247,1.146c0.113,0.252,0,0.548-0.252,0.661c-0.253,0.113-0.548,0-0.66-0.252  c-0.213-0.474-0.271-0.964-0.328-1.438c-0.02-0.17-0.04-0.34-0.068-0.506c-0.181-1.761-0.32-3.574-0.429-5.573  c-0.116-1.801-0.206-3.608-0.296-5.417l-0.166-3.606c-0.063-1.388-0.125-2.775-0.179-4.163l-0.355-8.813  c-0.05-1.278-0.1-2.557-0.145-3.836c-0.054-1.15-0.097-2.306-0.141-3.462c-0.037-0.985-0.074-1.971-0.118-2.955  c-0.051-1.322-0.105-2.642-0.16-3.96l-0.086-2.087c-0.1-2.311-0.206-4.623-0.319-6.936c-0.099-2.047-0.218-4.096-0.344-6.143  L86.5,21.65c-0.099-1.436-0.201-2.912-0.361-4.366c-0.038,0.344-0.07,0.688-0.102,1.026l-0.073,0.752  c-0.136,1.688-0.256,3.387-0.357,5.088c-0.135,2.273-0.263,4.549-0.369,6.823c-0.104,2.006-0.199,4.013-0.289,6.015l-0.319,6.893  c-0.053,1.26-0.113,2.521-0.174,3.782c-0.057,1.191-0.113,2.383-0.164,3.574L84,56.998c-0.088,1.657-0.188,3.312-0.289,4.967  l-0.137,2.055c-0.096,1.33-0.194,2.706-0.34,4.057l-0.049,0.446c-0.086,0.797-0.176,1.621-0.415,2.421  c-0.058,0.297-0.321,0.547-0.63,0.563c-0.237,0.002-0.521-0.11-0.638-0.488c-0.26-0.792-0.353-1.618-0.442-2.417  c-0.026-0.235-0.053-0.471-0.084-0.705c-0.179-1.751-0.303-3.444-0.436-5.32c-0.133-2.008-0.259-4.013-0.374-6.021  c-0.117-2.037-0.229-4.072-0.338-6.108L79.5,44.34c-0.068-1.364-0.146-2.726-0.224-4.088l-0.122-2.187  c-0.122-2.092-0.257-4.188-0.395-6.279l-0.068-0.88c-0.112-1.467-0.229-2.983-0.388-4.468l-0.06-0.5  c-0.045-0.383-0.089-0.757-0.145-1.123c-0.015,0.103-0.029,0.206-0.043,0.311l-0.075,0.52c-0.236,1.913-0.395,3.871-0.524,5.555  c-0.118,1.47-0.218,2.941-0.316,4.412l-0.49,7.627c-0.063,1.079-0.133,2.159-0.203,3.239s-0.141,2.16-0.204,3.242  c-0.057,0.768-0.108,1.528-0.16,2.289c-0.077,1.126-0.154,2.251-0.244,3.374c-0.139,1.787-0.298,3.711-0.528,5.659l-0.059,0.439  c-0.104,0.794-0.211,1.613-0.458,2.41c-0.182,0.5-0.447,0.632-0.64,0.657c-0.228,0.036-0.447-0.071-0.592-0.274  c-0.296-0.518-0.384-1.027-0.469-1.52c-0.025-0.149-0.051-0.299-0.082-0.445c-0.248-1.635-0.404-3.274-0.556-4.859l-0.02-0.201  c-0.155-1.811-0.308-3.615-0.44-5.423c-0.076-0.939-0.145-1.884-0.213-2.828c-0.056-0.774-0.112-1.55-0.173-2.325  c-0.146-2.062-0.296-4.122-0.464-6.178c-0.138-1.851-0.297-3.697-0.479-5.542c-0.156-1.52-0.317-3.092-0.609-4.616  c-0.182,0.821-0.294,1.7-0.403,2.555l-0.104,0.795c-0.188,1.74-0.37,3.495-0.518,5.252c-0.133,1.406-0.253,2.809-0.373,4.211  l-0.083,0.975c-0.123,1.459-0.253,2.919-0.382,4.379l-0.262,2.76c-0.096,0.964-0.19,1.929-0.307,2.89l-0.034,0.278  c-0.163,1.33-0.333,2.707-0.679,4.04c-0.008,0.033-0.021,0.065-0.035,0.097c-0.021,0.04-0.035,0.087-0.052,0.135  c-0.079,0.224-0.21,0.598-0.611,0.735c-0.074,0.025-0.153,0.035-0.23,0.022c-0.492-0.067-0.652-0.518-0.729-0.733  c-0.017-0.046-0.031-0.092-0.051-0.13c-0.019-0.033-0.032-0.069-0.042-0.106c-0.349-1.288-0.523-2.619-0.692-3.906l-0.093-0.692  c-0.196-1.652-0.373-3.299-0.543-4.944c-0.108-1.118-0.222-2.233-0.334-3.348l-0.271-2.672c-0.153-1.435-0.306-2.868-0.485-4.297  l-0.016-0.117c-0.175-1.327-0.355-2.699-0.673-4.006c-0.011-0.021-0.026-0.068-0.044-0.125c-0.249,0.841-0.396,1.784-0.538,2.699  l-0.103,0.645c-0.231,1.63-0.433,3.275-0.629,4.922c-0.187,1.611-0.378,3.226-0.572,4.841c-0.214,1.757-0.414,3.204-0.628,4.555  l-0.086,0.467c-0.151,0.833-0.308,1.694-0.626,2.519c-0.192,0.427-0.43,0.657-0.716,0.712c-0.225,0.045-0.448-0.029-0.626-0.202  c-0.4-0.504-0.537-1.053-0.657-1.538l-0.066-0.263c-0.297-1.267-0.493-2.554-0.683-3.798l-0.218-1.51  c-0.16-1.13-0.32-2.262-0.464-3.394l-0.178-1.223c-0.147-1.024-0.296-2.049-0.464-3.071l-0.074-0.406  c-0.176-0.98-0.357-1.995-0.683-2.934c-0.001,0.001-0.014-0.021-0.034-0.064c-0.027,0.07-0.054,0.146-0.077,0.215l-0.063,0.178  c-0.334,1.058-0.54,2.216-0.738,3.335l-0.081,0.452c-0.239,1.38-0.459,2.768-0.679,4.156l-0.18,1.089  c-0.229,1.334-0.468,2.714-0.793,4.057l-0.096,0.33c-0.148,0.522-0.302,1.063-0.645,1.546c-0.186,0.235-0.446,0.354-0.711,0.339  c-0.265-0.016-0.509-0.165-0.651-0.397c-0.385-0.548-0.557-1.2-0.725-1.831l-0.093-0.344c-0.332-1.361-0.59-2.738-0.839-4.068  l-0.2-1.054c-0.213-1.121-0.432-2.279-0.693-3.404l-0.088-0.357c-0.182-0.742-0.353-1.446-0.686-2.067  c-0.123,0.181-0.214,0.435-0.311,0.7l-0.112,0.3c-0.384,1.232-0.674,2.568-0.954,3.86l-0.204,0.913  c-0.258,1.164-0.525,2.367-0.865,3.537l-0.102,0.303c-0.181,0.543-0.368,1.104-0.756,1.59c-0.398,0.415-0.948,0.449-1.307,0.111  c-0.457-0.446-0.666-1.027-0.851-1.541l-0.09-0.246c-0.344-1.059-0.617-2.125-0.883-3.155c-0.107-0.42-0.216-0.839-0.328-1.258  c-0.296-1.111-0.563-2.112-0.995-3.062l-0.048-0.08c-0.047-0.082-0.156-0.276-0.233-0.352c-0.15,0.123-0.28,0.395-0.389,0.62  c-0.37,0.811-0.628,1.658-0.877,2.479l-0.144,0.468c-0.295,0.997-0.567,1.901-0.896,2.811l-0.055,0.137  c-0.218,0.543-0.464,1.158-0.913,1.636c-0.211,0.216-0.529,0.321-0.771,0.329c-0.272-0.004-0.524-0.117-0.71-0.317  c-0.448-0.419-0.702-1.012-0.926-1.536l-0.087-0.201c-0.264-0.656-0.494-1.313-0.724-1.968c-0.114-0.325-0.228-0.649-0.345-0.971  c-0.255-0.667-0.495-1.299-0.835-1.878c-0.116-0.155-0.326-0.378-0.409-0.401c-0.133,0.036-0.33,0.363-0.505,0.653l-0.082,0.136  c-0.408,0.801-0.759,1.667-1.046,2.405l-0.196,0.445c-0.229,0.521-0.466,1.062-0.777,1.565c-0.242,0.367-0.78,1.196-1.679,0.977  c-0.704-0.281-1.057-0.881-1.34-1.361l-0.097-0.163c-0.25-0.465-0.468-0.915-0.686-1.366c-0.166-0.345-0.332-0.689-0.507-1.029  l-0.108-0.189c-0.261-0.464-0.508-0.901-0.883-1.144c-0.073-0.046-0.218-0.023-0.296,0.057c-0.391,0.309-0.635,0.719-0.894,1.153  l-0.146,0.243c-0.113,0.191-0.226,0.392-0.338,0.592c-0.366,0.655-0.746,1.332-1.278,1.902c-0.457,0.482-1.029,0.67-1.572,0.518  c-0.715-0.297-1.158-0.885-1.557-1.463c-0.153-0.217-0.302-0.444-0.45-0.669c-0.306-0.465-0.594-0.904-0.953-1.298  c-0.396-0.401-0.619-0.411-0.757-0.39c-0.372,0.096-0.709,0.496-1.035,0.884l-0.372,0.469c-0.403,0.534-0.82,1.086-1.376,1.531  c-0.528,0.393-1.09,0.516-1.604,0.358c-0.664-0.211-1.146-0.72-1.571-1.17l-0.298-0.328c-0.309-0.343-0.599-0.667-0.938-0.942  c-0.326-0.253-0.578-0.35-0.868-0.328c-0.353,0.059-0.709,0.341-1.069,0.649l-0.269,0.256c-0.313,0.298-0.624,0.595-0.962,0.87  c-0.396,0.283-0.915,0.605-1.569,0.639c-0.464,0.033-0.921-0.17-1.217-0.33l-0.133-0.084c-0.061-0.037-0.12-0.074-0.183-0.119  c-0.223-0.164-0.271-0.477-0.107-0.7c0.164-0.223,0.479-0.27,0.699-0.107c0.039,0.029,0.077,0.052,0.114,0.075l0.129,0.083  c0.255,0.135,0.476,0.201,0.662,0.185c0.001,0,0.002,0,0.004,0c0.358,0,0.637-0.181,0.995-0.436  c0.292-0.239,0.584-0.518,0.877-0.797l0.291-0.277c0.472-0.404,0.97-0.792,1.62-0.897c0.745-0.059,1.245,0.257,1.607,0.536  c0.408,0.332,0.739,0.701,1.06,1.058l0.28,0.31c0.358,0.378,0.729,0.771,1.144,0.902c0.248,0.076,0.518-0.064,0.696-0.196  c0.442-0.355,0.821-0.857,1.188-1.342l0.404-0.51c0.408-0.485,0.871-1.035,1.582-1.215c0.868-0.179,1.495,0.467,1.702,0.677  c0.425,0.467,0.749,0.959,1.063,1.437c0.142,0.216,0.284,0.433,0.435,0.646c0.331,0.481,0.658,0.922,1.066,1.094  c0.185,0.045,0.423-0.166,0.514-0.262c0.448-0.479,0.781-1.074,1.135-1.705c0.116-0.208,0.232-0.416,0.354-0.619l0.143-0.238  c0.294-0.495,0.599-1.007,1.093-1.393c0.365-0.368,1.009-0.449,1.49-0.152c0.591,0.383,0.925,0.975,1.22,1.498l0.115,0.201  c0.189,0.368,0.36,0.721,0.53,1.073c0.211,0.438,0.422,0.875,0.652,1.305l0.09,0.15c0.229,0.389,0.465,0.789,0.788,0.922  c0.117,0.025,0.332-0.273,0.526-0.567c0.267-0.433,0.479-0.917,0.704-1.429l0.19-0.431c0.286-0.736,0.648-1.633,1.097-2.508  l0.097-0.162c0.251-0.417,0.596-0.987,1.238-1.126c0.739-0.03,1.106,0.485,1.333,0.796c0.011,0.014,0.054,0.074,0.063,0.089  c0.381,0.651,0.648,1.352,0.906,2.028c0.123,0.339,0.238,0.667,0.354,0.996c0.226,0.642,0.45,1.285,0.702,1.913l0.084,0.194  c0.203,0.475,0.396,0.924,0.716,1.225c0.364-0.332,0.555-0.811,0.757-1.314l0.049-0.122c0.313-0.868,0.581-1.757,0.873-2.744  l0.144-0.47c0.259-0.852,0.526-1.731,0.906-2.565c0.228-0.474,0.503-1.047,1.094-1.246c0.048-0.016,0.097-0.024,0.146-0.026  c0.011,0,0.021,0,0.031,0c0.646,0,0.96,0.556,1.148,0.891l0.063,0.109c0.491,1.073,0.781,2.162,1.063,3.215  c0.126,0.472,0.235,0.896,0.344,1.318c0.262,1.015,0.531,2.066,0.857,3.074l0.088,0.238c0.143,0.397,0.278,0.775,0.504,1.051  c0.229-0.316,0.369-0.741,0.519-1.189l0.098-0.289c0.324-1.116,0.588-2.303,0.843-3.451l0.197-0.883  c0.29-1.338,0.585-2.696,0.995-4.006l0.114-0.307c0.155-0.43,0.332-0.916,0.734-1.272c0.197-0.156,0.409-0.217,0.625-0.178  c0.374,0.059,0.611,0.356,0.696,0.482c0.453,0.796,0.656,1.631,0.854,2.438l0.088,0.358c0.269,1.153,0.49,2.322,0.704,3.453  l0.2,1.056c0.247,1.317,0.503,2.681,0.824,3.999l0.092,0.342c0.127,0.477,0.247,0.932,0.457,1.316  c0.146-0.286,0.244-0.631,0.346-0.99l0.093-0.318c0.311-1.284,0.545-2.646,0.772-3.965l0.178-1.075  c0.22-1.393,0.44-2.786,0.682-4.174l0.08-0.452c0.205-1.151,0.417-2.342,0.778-3.485l0.063-0.18c0.123-0.355,0.291-0.841,0.757-1.08  c0.072-0.037,0.152-0.042,0.231-0.056c0.582,0.004,0.812,0.529,0.922,0.782c0.021,0.047,0.04,0.093,0.062,0.134  c0.381,1.082,0.569,2.135,0.752,3.153l0.074,0.412c0.172,1.037,0.32,2.068,0.469,3.1l0.179,1.23  c0.145,1.137,0.304,2.264,0.464,3.391l0.216,1.498c0.188,1.225,0.38,2.492,0.665,3.706l0.066,0.265  c0.058,0.231,0.113,0.456,0.188,0.658c0.222-0.648,0.349-1.35,0.483-2.087l0.084-0.459c0.21-1.324,0.408-2.761,0.621-4.505  c0.193-1.612,0.385-3.226,0.571-4.836c0.197-1.655,0.399-3.309,0.634-4.956l0.103-0.647c0.16-1.03,0.326-2.096,0.661-3.117  l0.06-0.146c0.091-0.227,0.325-0.825,0.946-0.733c0.079,0.013,0.154,0.045,0.22,0.093c0.354,0.263,0.473,0.657,0.568,0.974  c0.022,0.075,0.044,0.149,0.07,0.219c0.347,1.414,0.531,2.813,0.709,4.166l0.016,0.12c0.182,1.438,0.335,2.878,0.488,4.318  l0.271,2.678c0.113,1.116,0.227,2.233,0.335,3.349c0.169,1.638,0.345,3.278,0.54,4.918l0.092,0.688  c0.148,1.13,0.301,2.295,0.572,3.41c0.272-1.163,0.421-2.378,0.566-3.556l0.034-0.277c0.114-0.953,0.209-1.91,0.304-2.867  l0.261-2.75c0.129-1.458,0.259-2.917,0.382-4.375l0.083-0.976c0.12-1.404,0.24-2.81,0.373-4.214c0.147-1.76,0.331-3.522,0.521-5.284  l0.104-0.801c0.133-1.034,0.27-2.104,0.541-3.145l0.053-0.171c0.071-0.252,0.204-0.721,0.683-0.86  c0.145-0.04,0.303-0.016,0.427,0.071c0.375,0.262,0.476,0.68,0.549,0.985c0.021,0.09,0.042,0.18,0.071,0.261  c0.343,1.695,0.513,3.349,0.677,4.947c0.183,1.854,0.343,3.709,0.48,5.563c0.168,2.057,0.317,4.12,0.464,6.182  c0.061,0.773,0.117,1.551,0.173,2.328c0.068,0.941,0.137,1.882,0.213,2.822c0.133,1.808,0.285,3.607,0.439,5.409l0.019,0.197  c0.15,1.571,0.305,3.196,0.544,4.775c0.028,0.13,0.057,0.292,0.084,0.454c0.001,0.001,0.001,0.001,0.001,0.002  c0.071-0.398,0.125-0.81,0.181-1.234l0.058-0.437c0.228-1.922,0.386-3.834,0.523-5.611c0.09-1.121,0.166-2.242,0.243-3.364  c0.053-0.763,0.104-1.524,0.161-2.286c0.063-1.076,0.133-2.159,0.203-3.241c0.07-1.078,0.14-2.156,0.203-3.235l0.49-7.634  c0.1-1.476,0.199-2.951,0.317-4.423c0.131-1.693,0.29-3.665,0.531-5.615l0.074-0.518c0.089-0.642,0.181-1.305,0.435-1.94  c0.147-0.333,0.409-0.434,0.618-0.422c0.331,0.019,0.567,0.304,0.653,0.578c0.262,0.869,0.365,1.758,0.466,2.617l0.06,0.502  c0.161,1.507,0.278,3.031,0.392,4.506l0.068,0.884c0.139,2.102,0.273,4.199,0.396,6.295l0.123,2.187  c0.077,1.364,0.154,2.728,0.223,4.092l0.33,6.105c0.107,2.034,0.22,4.068,0.337,6.104c0.115,2.006,0.241,4.008,0.374,6.011  c0.132,1.865,0.256,3.551,0.431,5.272c0.03,0.227,0.058,0.468,0.084,0.71c0.021,0.19,0.043,0.378,0.065,0.563  c0.025-0.21,0.049-0.422,0.072-0.637l0.05-0.449c0.143-1.329,0.24-2.696,0.335-4.018l0.137-2.044  c0.101-1.653,0.201-3.305,0.288-4.958l0.291-5.758c0.051-1.188,0.107-2.381,0.165-3.573c0.06-1.26,0.12-2.519,0.173-3.779  l0.319-6.895c0.09-2.003,0.185-4.012,0.289-6.019c0.106-2.275,0.235-4.555,0.37-6.832c0.102-1.709,0.223-3.413,0.359-5.12  l0.073-0.754c0.093-0.989,0.188-2.012,0.419-3.013c0.009-0.037,0.021-0.073,0.039-0.108c0.058-0.184,0.161-0.5,0.484-0.591  C86.017,14.496,86.056,14.492,86.097,14.492z"/>
<rect x="0.316" y="44.734" width="89.969" height="0.5"/>
</svg>