<?xml version="1.0" encoding="utf-8"?>
<!-- Generator: Adobe Illustrator 18.0.0, SVG Export Plug-In . SVG Version: 6.00 Build 0)  -->
<!DOCTYPE svg PUBLIC "-//W3C//DTD SVG 1.1//EN" "http://www.w3.org/Graphics/SVG/1.1/DTD/svg11.dtd">
<svg version="1.1" id="Layer_1" xmlns="http://www.w3.org/2000/svg" xmlns:xlink="http://www.w3.org/1999/xlink" x="0px" y="0px"
	 viewBox="0 0 500 500" enable-background="new 0 0 500 500" xml:space="preserve">
<g>
	<g>
		<polygon fill="#FFFFFF" stroke="#000000" stroke-width="5" points="64,217.2 62.7,422.7 219.8,449.9 221.1,244.4 		"/>
	</g>
</g>
<g>
	<g>
		<polygon fill="#FFFFFF" stroke="#000000" stroke-width="5" points="221.1,244.4 219.8,449.9 398.5,331 399.9,125.6 		"/>
	</g>
</g>
<g>
	<g>
		<g>
			<path fill="#B63C39" d="M270.3,343.1c9.4-1.5,17,5.3,17.1,15.1c0,9.8-7.6,19-17,20.5c-9.4,1.5-17-5.3-17.1-15.1
				C253.3,353.7,260.9,344.5,270.3,343.1z"/>
		</g>
		<g>
			<path d="M270.3,340.2c10.9-1.7,19.7,6.1,19.8,17.5s-8.8,22-19.7,23.8s-19.7-6.1-19.8-17.5C250.6,352.6,259.4,341.9,270.3,340.2z
				 M270.4,378.7c9.4-1.5,17-10.7,17-20.5c0-9.8-7.7-16.6-17.1-15.1c-9.4,1.5-17,10.7-17,20.5C253.4,373.4,261,380.2,270.4,378.7"/>
		</g>
	</g>
</g>
<g>
	<g>
		<g>
			<path fill="#39B67A" d="M270.3,250.1c9.4-1.5,17,5.3,17.1,15.1c0,9.8-7.6,19-17,20.5c-9.4,1.5-17-5.3-17.1-15.1
				C253.3,260.7,260.9,251.5,270.3,250.1z"/>
		</g>
		<g>
			<path d="M270.3,247.2c10.9-1.7,19.7,6.1,19.8,17.5c0,11.4-8.8,22.1-19.7,23.8s-19.7-6.1-19.8-17.5
				C250.6,259.6,259.4,248.9,270.3,247.2z M270.4,285.7c9.4-1.5,17-10.7,17-20.5c0-9.8-7.7-16.6-17.1-15.1c-9.4,1.5-17,10.7-17,20.5
				C253.4,280.4,261,287.2,270.4,285.7"/>
		</g>
	</g>
</g>
<g>
	<g>
		<g>
			<polygon fill="#00060F" points="93.5,220.2 266,102.4 302.9,108.2 130.5,226 			"/>
		</g>
	</g>
</g>
<g>
	<g>
		<g>
			<polygon fill="#00060F" points="156.8,231.4 329.2,113.6 366.2,119.4 193.7,237.2 			"/>
		</g>
	</g>
</g>
<g>
	<g>
		<polygon fill="none" stroke="#000000" stroke-width="5" points="242.8,98.4 64,217.2 221.1,244.4 399.9,125.6 		"/>
	</g>
</g>
<g>
	<g>
		<g>
			<polygon fill="#555555" points="140.5,253.5 140.1,416 117.6,412.4 118,249.9 			"/>
		</g>
		<g>
			<path d="M113.5,244.5l31.5,5l-0.4,172l-31.5-5L113.5,244.5z M140.1,416l0.4-162.5l-22.5-3.6l-0.4,162.5L140.1,416"/>
		</g>
	</g>
</g>
<g>
	<g>
		<g enable-background="new    ">
			<g enable-background="new    ">
				<defs>
					<path id="SVGID_1_" enable-background="new    " d="M69.7,274.6l17.2-11.8c2.5-1.7,5.7-2.5,9.2-1.9l-17.2,11.8
						C75.4,272.1,72.2,272.9,69.7,274.6z"/>
				</defs>
				<clipPath id="SVGID_2_">
					<use xlink:href="#SVGID_1_"  overflow="visible"/>
				</clipPath>
				<g clip-path="url(#SVGID_2_)" enable-background="new    ">
					<path fill="#6F2423" d="M69.7,274.6l17.2-11.8c0.6-0.4,1.3-0.8,2-1.1l-17.2,11.8C71,273.8,70.3,274.2,69.7,274.6"/>
					<path fill="#732624" d="M71.7,273.5l17.2-11.8c0.4-0.2,0.8-0.3,1.3-0.5L73,273C72.5,273.2,72.1,273.3,71.7,273.5"/>
					<path fill="#772726" d="M73,273l17.2-11.8c0.3-0.1,0.7-0.2,1-0.3L74,272.8C73.7,272.9,73.3,272.9,73,273"/>
					<path fill="#7C2927" d="M74,272.8L91.3,261c0.3-0.1,0.6-0.1,0.9-0.2L75,272.6C74.6,272.7,74.3,272.7,74,272.8"/>
					<path fill="#802A28" d="M75,272.6l17.2-11.8c0.3,0,0.6-0.1,0.9-0.1l-17.2,11.8C75.5,272.6,75.2,272.6,75,272.6"/>
					<path fill="#842B2A" d="M75.8,272.5l17.2-11.8c0.3,0,0.5,0,0.8,0l-17.2,11.8C76.4,272.5,76.1,272.5,75.8,272.5"/>
					<path fill="#882D2B" d="M76.6,272.5l17.2-11.8c0.3,0,0.5,0,0.8,0l-17.2,11.8C77.2,272.5,76.9,272.5,76.6,272.5"/>
					<path fill="#8D2E2C" d="M77.4,272.5l17.2-11.8c0.3,0,0.5,0,0.8,0.1l-17.2,11.8C77.9,272.6,77.7,272.6,77.4,272.5"/>
					<path fill="#91302E" d="M78.2,272.6l17.2-11.8c0.2,0,0.4,0.1,0.7,0.1l-17.2,11.8C78.6,272.7,78.4,272.6,78.2,272.6"/>
				</g>
			</g>
			<g>
				<polygon fill="#A73734" points="156.3,315.5 173.5,303.7 173.5,304.1 156.3,315.9 				"/>
			</g>
			<g>
				<polygon fill="#9D3431" points="78.9,272.4 96.1,260.6 173.6,272.9 156.3,284.7 				"/>
			</g>
			<g enable-background="new    ">
				<defs>
					<path id="SVGID_3_" enable-background="new    " d="M182.4,301.8l-17.2,11.8c3.3-2.3,5.5-6.2,5.5-11.1
						c0-8.3-6.4-16.1-14.3-17.8l17.2-11.8c7.9,1.6,14.3,9.4,14.3,17.8C187.9,295.5,185.7,299.5,182.4,301.8z"/>
				</defs>
				<clipPath id="SVGID_4_">
					<use xlink:href="#SVGID_3_"  overflow="visible"/>
				</clipPath>
				<g clip-path="url(#SVGID_4_)" enable-background="new    ">
					<path fill="#95312F" d="M156.3,284.7l17.2-11.8c0.1,0,0.1,0,0.2,0l-17.2,11.8C156.4,284.7,156.4,284.7,156.3,284.7"/>
					<path fill="#993230" d="M156.5,284.7l17.2-11.8c0.3,0.1,0.5,0.1,0.8,0.2l-17.2,11.8C157,284.9,156.8,284.8,156.5,284.7"/>
					<path fill="#9E3432" d="M157.3,284.9l17.2-11.8c0.3,0.1,0.5,0.2,0.8,0.2l-17.2,11.8C157.8,285.1,157.5,285,157.3,284.9"/>
					<path fill="#A23533" d="M158.1,285.2l17.2-11.8c0.3,0.1,0.5,0.2,0.8,0.3l-17.2,11.8C158.6,285.3,158.3,285.2,158.1,285.2"/>
					<path fill="#A63734" d="M158.8,285.4l17.2-11.8c0.3,0.1,0.5,0.2,0.8,0.3l-17.2,11.8C159.4,285.7,159.1,285.5,158.8,285.4"/>
					<path fill="#AA3836" d="M159.7,285.8l17.2-11.8c0.3,0.1,0.6,0.3,0.8,0.4l-17.2,11.8C160.2,286,159.9,285.9,159.7,285.8"/>
					<path fill="#AF3937" d="M160.5,286.2l17.2-11.8c0.3,0.2,0.6,0.3,0.9,0.5l-17.2,11.8C161.1,286.5,160.8,286.3,160.5,286.2"/>
					<path fill="#B33B38" d="M161.4,286.7l17.2-11.8c0.3,0.2,0.6,0.4,1,0.6l-17.2,11.8C162,287.1,161.7,286.9,161.4,286.7"/>
					<path fill="#B73C3A" d="M162.4,287.3l17.2-11.8c0.4,0.3,0.7,0.5,1.1,0.8l-17.2,11.8C163.1,287.8,162.7,287.5,162.4,287.3"/>
					<path fill="#BB3E3B" d="M163.5,288.1l17.2-11.8c0.5,0.4,0.9,0.8,1.4,1.2l-17.2,11.8C164.4,288.9,163.9,288.5,163.5,288.1"/>
					<path fill="#C03F3C" d="M164.8,289.3l17.2-11.8c1.4,1.4,2.6,3,3.6,4.7L168.4,294C167.5,292.3,166.3,290.7,164.8,289.3"/>
					<path fill="#BB3E3B" d="M168.4,294l17.2-11.8c0.3,0.5,0.6,1.1,0.8,1.6l-17.2,11.8C169,295.1,168.7,294.5,168.4,294"/>
					<path fill="#B73C3A" d="M169.2,295.6l17.2-11.8c0.2,0.4,0.3,0.8,0.5,1.2l-17.2,11.8C169.5,296.5,169.4,296,169.2,295.6"/>
					<path fill="#B33B38" d="M169.7,296.9l17.2-11.8c0.1,0.4,0.2,0.7,0.3,1.1L170,297.9C169.9,297.6,169.8,297.2,169.7,296.9"/>
					<path fill="#AF3937" d="M170,297.9l17.2-11.8c0.1,0.3,0.2,0.6,0.2,1l-17.2,11.8C170.2,298.6,170.1,298.3,170,297.9"/>
					<path fill="#AA3836" d="M170.3,298.9l17.2-11.8c0.1,0.3,0.1,0.6,0.2,0.9l-17.2,11.8C170.4,299.5,170.3,299.2,170.3,298.9"/>
					<path fill="#A63734" d="M170.4,299.8l17.2-11.8c0,0.3,0.1,0.6,0.1,0.8l-17.2,11.8C170.5,300.4,170.5,300.1,170.4,299.8"/>
					<path fill="#A23533" d="M170.5,300.6l17.2-11.8c0,0.3,0.1,0.6,0.1,0.8l-17.2,11.8C170.6,301.2,170.6,300.9,170.5,300.6"/>
					<path fill="#9E3432" d="M170.6,301.5l17.2-11.8c0,0.3,0,0.5,0,0.8l-17.2,11.8C170.6,302,170.6,301.7,170.6,301.5"/>
					<path fill="#993230" d="M170.6,302.3l17.2-11.8c0,0.1,0,0.1,0,0.2c0,0.2,0,0.4,0,0.6l-17.2,11.8c0-0.2,0-0.4,0-0.6
						C170.6,302.4,170.6,302.3,170.6,302.3"/>
					<path fill="#95312F" d="M170.6,303.1l17.2-11.8c0,0.3,0,0.5,0,0.8l-17.2,11.8C170.6,303.6,170.6,303.3,170.6,303.1"/>
					<path fill="#91302E" d="M170.6,303.9l17.2-11.8c0,0.3-0.1,0.5-0.1,0.8l-17.2,11.8C170.5,304.4,170.5,304.1,170.6,303.9"/>
					<path fill="#8D2E2C" d="M170.5,304.6l17.2-11.8c0,0.3-0.1,0.5-0.1,0.8l-17.2,11.8C170.4,305.1,170.4,304.9,170.5,304.6"/>
					<path fill="#882D2B" d="M170.4,305.4l17.2-11.8c-0.1,0.3-0.1,0.5-0.2,0.8l-17.2,11.8C170.2,305.9,170.3,305.7,170.4,305.4"/>
					<path fill="#842B2A" d="M170.2,306.2l17.2-11.8c-0.1,0.3-0.1,0.5-0.2,0.8L170,307C170,306.7,170.1,306.4,170.2,306.2"/>
					<path fill="#802A28" d="M170,307l17.2-11.8c-0.1,0.3-0.2,0.6-0.3,0.8l-17.2,11.8C169.8,307.5,169.9,307.3,170,307"/>
					<path fill="#7C2927" d="M169.7,307.8l17.2-11.8c-0.1,0.3-0.2,0.6-0.4,0.9l-17.2,11.8C169.4,308.4,169.5,308.1,169.7,307.8"/>
					<path fill="#772726" d="M169.3,308.7l17.2-11.8c-0.2,0.3-0.3,0.7-0.5,1l-17.2,11.8C168.9,309.3,169.1,309,169.3,308.7"/>
					<path fill="#732624" d="M168.8,309.6l17.2-11.8c-0.2,0.4-0.5,0.8-0.8,1.1L168,310.8C168.3,310.4,168.5,310,168.8,309.6"/>
					<path fill="#6F2423" d="M168,310.8l17.2-11.8c-0.8,1.1-1.8,2-2.9,2.7l-17.2,11.8C166.2,312.8,167.2,311.9,168,310.8"/>
				</g>
			</g>
			<g>
				<path fill="#902F2D" d="M156.3,284.7c7.9,1.6,14.3,9.4,14.3,17.8c0,8.4-6.4,14.1-14.4,13l0,0.3l-77.5-12.3
					c-8.1-1.5-14.6-9.4-14.6-17.9c0-8.5,6.6-14.3,14.7-13l0-0.3L156.3,284.7z"/>
			</g>
		</g>
	</g>
</g>
</svg>
