<?xml version="1.0" encoding="utf-8"?>
<!-- Generator: Adobe Illustrator 18.1.0, SVG Export Plug-In . SVG Version: 6.00 Build 0)  -->
<!DOCTYPE svg PUBLIC "-//W3C//DTD SVG 1.1//EN" "http://www.w3.org/Graphics/SVG/1.1/DTD/svg11.dtd">
<svg version="1.1" id="Layer_1" xmlns="http://www.w3.org/2000/svg" xmlns:xlink="http://www.w3.org/1999/xlink" x="0px" y="0px"
	 viewBox="-429 231 100 100" enable-background="new -429 231 100 100" xml:space="preserve">
<g id="Your_Icon" display="none">
	<path display="inline" d="M-329,305.8h-3.4c0-25.7-20.9-46.6-46.6-46.6c-25.7,0-46.6,20.9-46.6,46.6h-3.4c0-27.6,22.4-50,50-50
		C-351.4,255.8-329,278.3-329,305.8z"/>
	<path display="inline" d="M-335.7,305.8h-6.8c0-20.1-16.4-36.5-36.5-36.5c-20.1,0-36.5,16.4-36.5,36.5h-6.8
		c0-23.9,19.4-43.3,43.3-43.3S-335.7,282-335.7,305.8z"/>
	<path display="inline" d="M-355.8,305.8h-3.4c0-10.9-8.9-19.8-19.8-19.8c-10.9,0-19.8,8.9-19.8,19.8h-3.4
		c0-12.8,10.4-23.2,23.2-23.2S-355.8,293-355.8,305.8z"/>
	<path display="inline" d="M-346,305.8h-6.8c0-14.5-11.8-26.3-26.3-26.3c-14.5,0-26.3,11.8-26.3,26.3h-6.8c0-18.2,14.8-33,33-33
		C-360.8,272.8-346,287.6-346,305.8z"/>
</g>
<g id="Layer_2" display="none">
	<path display="inline" d="M-381.4,284.3c6.5,6.3,14.3,9.6,23.4,9.5c9.1,0,16.9-3.4,23.3-9.7c1.9,1.9,3.8,3.8,5.7,5.7
		c-14.5,14.8-40.2,17.7-58,0.2c-6.9-7.1-18.6-7.3-26-0.1c-1.9-1.9-3.8-3.7-5.7-5.6C-409.6,274.4-392.1,273.2-381.4,284.3z"/>
	<path display="inline" d="M-371,273.9c7.4,7.2,19.1,7.1,26,0c1.9,1.9,3.8,3.8,5.6,5.7c-10.7,11.1-28.3,9.8-37.3,0l0,0
		c-6.5-6.3-14.2-9.7-23.3-9.7c-9.1,0-16.9,3.3-23.4,9.6c-1.9-1.9-3.8-3.9-5.6-5.8C-411.2,256.1-385.4,259-371,273.9z"/>
</g>
<g id="Layer_3">
	<path fill="#2C4672" d="M-357.5,286.6c-8,0-14.9-3.7-18.6-6.9c-26.8-21.2-46.8-1.1-47.6-0.3l-5.2-5c0.3-0.3,6.4-6.6,16.6-9.8
		c9.4-3,24.1-3.7,40.8,9.5l0.1,0.1c0.6,0.5,14.3,12,28.1-0.9l4.9,5.3C-344.8,284.5-351.5,286.6-357.5,286.6z"/>
	<path fill="#2C4672" d="M-357.2,299c-8.3,0-18.3-2.7-29.2-11.3l-0.1-0.1c-0.6-0.5-14.3-12-28.1,0.9l-4.9-5.3
		c14.9-13.9,31.1-6.9,37.7-1.2c27,21.3,46.8,1.2,47.6,0.3l5.2,5c-0.3,0.3-6.4,6.6-16.6,9.8C-348.9,298.2-352.8,299-357.2,299z"/>
</g>
</svg>
